<svg width="194.3" height="290" viewBox="0 0 193 288" fill="none" xmlns="http://www.w3.org/2000/svg">
<g filter="url(#filter0_d_2319_32276)">
<path d="M4 15C4 6.71572 10.7157 0 19 0H173.033C181.317 0 188.033 6.71573 188.033 15V264.5C188.033 272.784 181.317 279.5 173.033 279.5H19C10.7157 279.5 4 272.784 4 264.5V15Z" fill="white"/>
</g>
<path d="M72.4794 249.053H69.4423L69.4618 247.11H72.4794C73.3583 247.11 74.094 246.918 74.6864 246.534C75.2854 246.15 75.7346 245.6 76.0341 244.883C76.3401 244.167 76.4931 243.314 76.4931 242.325V241.553C76.4931 240.785 76.4052 240.105 76.2294 239.512C76.0601 238.92 75.8062 238.422 75.4677 238.018C75.1357 237.615 74.7255 237.309 74.2372 237.1C73.7554 236.892 73.1988 236.788 72.5673 236.788H69.3837V234.835H72.5673C73.5113 234.835 74.3739 234.994 75.1552 235.313C75.9364 235.626 76.6103 236.078 77.1767 236.671C77.7496 237.263 78.189 237.973 78.495 238.799C78.801 239.626 78.954 240.551 78.954 241.573V242.325C78.954 243.347 78.801 244.271 78.495 245.098C78.189 245.925 77.7496 246.635 77.1767 247.227C76.6038 247.813 75.9202 248.266 75.1259 248.585C74.3381 248.897 73.456 249.053 72.4794 249.053ZM70.7997 234.835V249.053H68.3485V234.835H70.7997ZM83.7001 238.487V249.053H81.3368V238.487H83.7001ZM81.1806 235.714C81.1806 235.355 81.2978 235.059 81.5321 234.825C81.773 234.584 82.1051 234.464 82.5282 234.464C82.9449 234.464 83.2737 234.584 83.5146 234.825C83.7554 235.059 83.8759 235.355 83.8759 235.714C83.8759 236.065 83.7554 236.358 83.5146 236.592C83.2737 236.827 82.9449 236.944 82.5282 236.944C82.1051 236.944 81.773 236.827 81.5321 236.592C81.2978 236.358 81.1806 236.065 81.1806 235.714ZM88.6415 240.499V249.053H86.288V238.487H88.5341L88.6415 240.499ZM91.8739 238.419L91.8544 240.606C91.7112 240.58 91.5549 240.561 91.3857 240.547C91.2229 240.534 91.0601 240.528 90.8974 240.528C90.4937 240.528 90.1389 240.587 89.8329 240.704C89.5269 240.814 89.2698 240.977 89.0614 241.192C88.8596 241.4 88.7034 241.654 88.5927 241.954C88.482 242.253 88.4169 242.589 88.3974 242.96L87.8603 242.999C87.8603 242.335 87.9254 241.719 88.0556 241.153C88.1858 240.587 88.3811 240.089 88.6415 239.659C88.9084 239.229 89.2405 238.894 89.6376 238.653C90.0413 238.412 90.5068 238.292 91.0341 238.292C91.1773 238.292 91.3303 238.305 91.4931 238.331C91.6624 238.357 91.7893 238.386 91.8739 238.419ZM97.8114 249.249C97.0302 249.249 96.3238 249.122 95.6923 248.868C95.0673 248.607 94.5334 248.246 94.0907 247.784C93.6545 247.322 93.3193 246.778 93.0849 246.153C92.8505 245.528 92.7333 244.854 92.7333 244.131V243.741C92.7333 242.914 92.8538 242.165 93.0946 241.495C93.3355 240.824 93.6708 240.251 94.1005 239.776C94.5302 239.294 95.038 238.926 95.6239 238.672C96.2099 238.419 96.8446 238.292 97.5282 238.292C98.2834 238.292 98.9443 238.419 99.5107 238.672C100.077 238.926 100.546 239.284 100.917 239.747C101.295 240.202 101.574 240.746 101.757 241.378C101.946 242.009 102.04 242.706 102.04 243.467V244.473H93.8759V242.784H99.7157V242.598C99.7027 242.175 99.6181 241.778 99.4618 241.407C99.3121 241.036 99.081 240.736 98.7685 240.508C98.456 240.281 98.0393 240.167 97.5185 240.167C97.1278 240.167 96.7795 240.251 96.4735 240.421C96.1741 240.583 95.9234 240.821 95.7216 241.133C95.5198 241.446 95.3635 241.824 95.2528 242.266C95.1487 242.702 95.0966 243.194 95.0966 243.741V244.131C95.0966 244.594 95.1584 245.023 95.2821 245.421C95.4124 245.811 95.6012 246.153 95.8485 246.446C96.0959 246.739 96.3954 246.97 96.747 247.139C97.0985 247.302 97.4989 247.383 97.9482 247.383C98.5146 247.383 99.0191 247.269 99.4618 247.042C99.9045 246.814 100.289 246.491 100.614 246.075L101.854 247.276C101.627 247.608 101.33 247.927 100.966 248.233C100.601 248.533 100.155 248.777 99.6278 248.965C99.107 249.154 98.5015 249.249 97.8114 249.249ZM108.192 247.374C108.576 247.374 108.921 247.299 109.227 247.149C109.54 246.993 109.791 246.778 109.979 246.505C110.175 246.231 110.282 245.915 110.302 245.557H112.518C112.505 246.241 112.304 246.863 111.913 247.422C111.522 247.982 111.005 248.428 110.36 248.76C109.716 249.086 109.003 249.249 108.222 249.249C107.414 249.249 106.711 249.112 106.112 248.839C105.513 248.559 105.015 248.174 104.618 247.686C104.221 247.198 103.921 246.635 103.72 245.997C103.524 245.359 103.427 244.675 103.427 243.946V243.604C103.427 242.875 103.524 242.191 103.72 241.553C103.921 240.909 104.221 240.342 104.618 239.854C105.015 239.366 105.513 238.985 106.112 238.712C106.711 238.432 107.411 238.292 108.212 238.292C109.058 238.292 109.8 238.461 110.438 238.799C111.076 239.131 111.578 239.597 111.942 240.196C112.313 240.788 112.505 241.478 112.518 242.266H110.302C110.282 241.876 110.184 241.524 110.009 241.212C109.839 240.893 109.599 240.639 109.286 240.45C108.98 240.261 108.612 240.167 108.183 240.167C107.707 240.167 107.313 240.264 107.001 240.46C106.688 240.648 106.444 240.909 106.268 241.241C106.093 241.566 105.966 241.934 105.888 242.344C105.816 242.748 105.78 243.168 105.78 243.604V243.946C105.78 244.382 105.816 244.805 105.888 245.215C105.959 245.626 106.083 245.993 106.259 246.319C106.441 246.638 106.688 246.895 107.001 247.09C107.313 247.279 107.711 247.374 108.192 247.374ZM119.169 238.487V240.206H113.212V238.487H119.169ZM114.931 235.899H117.284V246.133C117.284 246.459 117.33 246.71 117.421 246.885C117.518 247.055 117.652 247.169 117.821 247.227C117.99 247.286 118.189 247.315 118.417 247.315C118.58 247.315 118.736 247.305 118.886 247.286C119.035 247.266 119.156 247.247 119.247 247.227L119.257 249.024C119.061 249.083 118.834 249.135 118.573 249.18C118.319 249.226 118.026 249.249 117.694 249.249C117.154 249.249 116.675 249.154 116.259 248.965C115.842 248.77 115.517 248.454 115.282 248.018C115.048 247.582 114.931 247.003 114.931 246.28V235.899ZM120.302 243.887V243.663C120.302 242.901 120.412 242.195 120.634 241.544C120.855 240.886 121.174 240.316 121.591 239.835C122.014 239.346 122.528 238.969 123.134 238.702C123.746 238.428 124.436 238.292 125.204 238.292C125.979 238.292 126.669 238.428 127.274 238.702C127.886 238.969 128.404 239.346 128.827 239.835C129.25 240.316 129.573 240.886 129.794 241.544C130.015 242.195 130.126 242.901 130.126 243.663V243.887C130.126 244.649 130.015 245.355 129.794 246.006C129.573 246.658 129.25 247.227 128.827 247.715C128.404 248.197 127.89 248.575 127.284 248.848C126.679 249.115 125.992 249.249 125.224 249.249C124.449 249.249 123.755 249.115 123.143 248.848C122.538 248.575 122.024 248.197 121.601 247.715C121.177 247.227 120.855 246.658 120.634 246.006C120.412 245.355 120.302 244.649 120.302 243.887ZM122.655 243.663V243.887C122.655 244.363 122.704 244.812 122.802 245.235C122.899 245.658 123.052 246.029 123.261 246.348C123.469 246.667 123.736 246.918 124.061 247.1C124.387 247.283 124.774 247.374 125.224 247.374C125.66 247.374 126.037 247.283 126.356 247.1C126.682 246.918 126.949 246.667 127.157 246.348C127.365 246.029 127.518 245.658 127.616 245.235C127.72 244.812 127.772 244.363 127.772 243.887V243.663C127.772 243.194 127.72 242.751 127.616 242.335C127.518 241.911 127.362 241.537 127.147 241.212C126.939 240.886 126.672 240.632 126.347 240.45C126.028 240.261 125.647 240.167 125.204 240.167C124.761 240.167 124.377 240.261 124.052 240.45C123.733 240.632 123.469 240.886 123.261 241.212C123.052 241.537 122.899 241.911 122.802 242.335C122.704 242.751 122.655 243.194 122.655 243.663Z" fill="#E4002B"/>
<path d="M71.4247 34.5262H73.8661V44.0282C73.8661 45.1089 73.6318 46.0139 73.163 46.743C72.6943 47.4722 72.0562 48.0223 71.2489 48.3934C70.4482 48.758 69.553 48.9403 68.5634 48.9403C67.5413 48.9403 66.6298 48.758 65.829 48.3934C65.0282 48.0223 64.3967 47.4722 63.9345 46.743C63.4788 46.0139 63.2509 45.1089 63.2509 44.0282V34.5262H65.6923V44.0282C65.6923 44.7118 65.8095 45.2749 66.0439 45.7177C66.2782 46.1538 66.6103 46.4761 67.04 46.6844C67.4696 46.8928 67.9775 46.9969 68.5634 46.9969C69.1493 46.9969 69.6539 46.8928 70.0771 46.6844C70.5068 46.4761 70.8388 46.1538 71.0732 45.7177C71.3075 45.2749 71.4247 44.7118 71.4247 44.0282V34.5262ZM82.2255 45.8837C82.2255 45.6493 82.1669 45.4377 82.0497 45.2489C81.9325 45.0536 81.7079 44.8778 81.3759 44.7216C81.0504 44.5653 80.5686 44.4221 79.9306 44.2919C79.3707 44.1682 78.8564 44.0217 78.3876 43.8524C77.9254 43.6766 77.5282 43.465 77.1962 43.2177C76.8642 42.9703 76.607 42.6773 76.4247 42.3387C76.2424 42.0002 76.1513 41.6096 76.1513 41.1669C76.1513 40.7372 76.2457 40.3303 76.4345 39.9462C76.6233 39.5621 76.8935 39.2235 77.245 38.9305C77.5966 38.6376 78.023 38.4065 78.5243 38.2372C79.0321 38.0679 79.5985 37.9833 80.2235 37.9833C81.109 37.9833 81.8674 38.133 82.4989 38.4325C83.137 38.7255 83.6252 39.1259 83.9638 39.6337C84.3023 40.135 84.4716 40.7014 84.4716 41.3329H82.1181C82.1181 41.0529 82.0465 40.7925 81.9032 40.5516C81.7665 40.3042 81.5582 40.1057 81.2782 39.9559C80.9983 39.7997 80.6467 39.7216 80.2235 39.7216C79.8199 39.7216 79.4846 39.7867 79.2177 39.9169C78.9573 40.0406 78.762 40.2033 78.6318 40.4052C78.5081 40.607 78.4462 40.8283 78.4462 41.0692C78.4462 41.245 78.4788 41.4045 78.5439 41.5477C78.6155 41.6844 78.7327 41.8114 78.8954 41.9286C79.0582 42.0393 79.2795 42.1434 79.5595 42.2411C79.8459 42.3387 80.204 42.4331 80.6337 42.5243C81.441 42.6936 82.1344 42.9117 82.7138 43.1786C83.2997 43.439 83.7489 43.7775 84.0614 44.1942C84.3739 44.6044 84.5302 45.1252 84.5302 45.7567C84.5302 46.2255 84.4293 46.6552 84.2275 47.0458C84.0321 47.4299 83.7457 47.7652 83.3681 48.0516C82.9905 48.3316 82.538 48.5497 82.0107 48.7059C81.4898 48.8622 80.9039 48.9403 80.2528 48.9403C79.2958 48.9403 78.4853 48.771 77.8212 48.4325C77.1571 48.0874 76.6526 47.648 76.3075 47.1141C75.969 46.5738 75.7997 46.0139 75.7997 45.4344H78.0751C78.1012 45.8706 78.2216 46.219 78.4364 46.4794C78.6578 46.7333 78.9312 46.9188 79.2568 47.036C79.5888 47.1467 79.9306 47.202 80.2821 47.202C80.7053 47.202 81.0601 47.1467 81.3466 47.036C81.6331 46.9188 81.8512 46.7626 82.0009 46.5673C82.1506 46.3654 82.2255 46.1376 82.2255 45.8837ZM92.9482 46.2548V38.1786H95.3114V48.745H93.0849L92.9482 46.2548ZM93.2802 44.0575L94.0712 44.038C94.0712 44.7476 93.9931 45.4019 93.8368 46.0009C93.6806 46.5933 93.4397 47.1109 93.1142 47.5536C92.7887 47.9898 92.372 48.3316 91.8642 48.579C91.3564 48.8199 90.7476 48.9403 90.038 48.9403C89.5237 48.9403 89.0517 48.8654 88.622 48.7157C88.1923 48.566 87.8212 48.3348 87.5087 48.0223C87.2027 47.7098 86.9651 47.3029 86.7958 46.8016C86.6265 46.3003 86.5419 45.7014 86.5419 45.0048V38.1786H88.8954V45.0243C88.8954 45.4084 88.941 45.7307 89.0321 45.9911C89.1233 46.245 89.247 46.4501 89.4032 46.6063C89.5595 46.7626 89.7418 46.8733 89.9501 46.9384C90.1584 47.0035 90.3798 47.036 90.6142 47.036C91.2847 47.036 91.8121 46.9058 92.1962 46.6454C92.5868 46.3785 92.8635 46.0204 93.0263 45.5712C93.1956 45.1219 93.2802 44.6174 93.2802 44.0575ZM103.681 46.6259V41.5868C103.681 41.2092 103.612 40.8837 103.476 40.6102C103.339 40.3368 103.13 40.1252 102.851 39.9755C102.577 39.8257 102.232 39.7509 101.815 39.7509C101.431 39.7509 101.099 39.816 100.819 39.9462C100.539 40.0764 100.321 40.2522 100.165 40.4735C100.009 40.6949 99.9306 40.9455 99.9306 41.2255H97.5868C97.5868 40.8088 97.6877 40.4052 97.8896 40.0145C98.0914 39.6239 98.3844 39.2756 98.7685 38.9696C99.1526 38.6636 99.6116 38.4227 100.145 38.2469C100.679 38.0712 101.278 37.9833 101.942 37.9833C102.737 37.9833 103.44 38.1167 104.052 38.3837C104.67 38.6506 105.155 39.0542 105.507 39.5946C105.865 40.1285 106.044 40.799 106.044 41.6063V46.3036C106.044 46.7854 106.076 47.2183 106.142 47.6024C106.213 47.98 106.314 48.3088 106.444 48.5887V48.745H104.032C103.921 48.4911 103.834 48.1688 103.768 47.7782C103.71 47.3811 103.681 46.9969 103.681 46.6259ZM104.022 42.3192L104.042 43.7743H102.352C101.916 43.7743 101.532 43.8166 101.2 43.9012C100.868 43.9794 100.591 44.0966 100.37 44.2528C100.149 44.4091 99.9827 44.5979 99.872 44.8192C99.7613 45.0406 99.706 45.2912 99.706 45.5712C99.706 45.8511 99.7711 46.1083 99.9013 46.3427C100.031 46.5705 100.22 46.7496 100.468 46.8798C100.722 47.01 101.028 47.0751 101.386 47.0751C101.867 47.0751 102.287 46.9774 102.645 46.7821C103.01 46.5803 103.296 46.3361 103.505 46.0497C103.713 45.7567 103.824 45.48 103.837 45.2196L104.599 46.2645C104.52 46.5315 104.387 46.8179 104.198 47.1239C104.009 47.4299 103.762 47.7229 103.456 48.0028C103.156 48.2762 102.795 48.5009 102.372 48.6766C101.955 48.8524 101.474 48.9403 100.927 48.9403C100.237 48.9403 99.6213 48.8036 99.081 48.5302C98.5406 48.2502 98.1174 47.8759 97.8114 47.4071C97.5054 46.9318 97.3525 46.3947 97.3525 45.7958C97.3525 45.2359 97.4566 44.7411 97.665 44.3114C97.8798 43.8752 98.1923 43.5106 98.6025 43.2177C99.0191 42.9247 99.5269 42.7033 100.126 42.5536C100.725 42.3973 101.408 42.3192 102.177 42.3192H104.022ZM110.868 40.1903V48.745H108.515V38.1786H110.761L110.868 40.1903ZM114.101 38.1102L114.081 40.2977C113.938 40.2717 113.781 40.2522 113.612 40.2391C113.449 40.2261 113.287 40.2196 113.124 40.2196C112.72 40.2196 112.365 40.2782 112.059 40.3954C111.753 40.5061 111.496 40.6688 111.288 40.8837C111.086 41.092 110.93 41.3459 110.819 41.6454C110.709 41.9449 110.643 42.2802 110.624 42.6512L110.087 42.6903C110.087 42.0262 110.152 41.411 110.282 40.8446C110.412 40.2782 110.608 39.7802 110.868 39.3505C111.135 38.9208 111.467 38.5855 111.864 38.3446C112.268 38.1037 112.733 37.9833 113.261 37.9833C113.404 37.9833 113.557 37.9963 113.72 38.0223C113.889 38.0484 114.016 38.0777 114.101 38.1102ZM118.095 38.1786V48.745H115.731V38.1786H118.095ZM115.575 35.4052C115.575 35.0471 115.692 34.7509 115.927 34.5165C116.168 34.2756 116.5 34.1552 116.923 34.1552C117.339 34.1552 117.668 34.2756 117.909 34.5165C118.15 34.7509 118.27 35.0471 118.27 35.4052C118.27 35.7567 118.15 36.0497 117.909 36.2841C117.668 36.5184 117.339 36.6356 116.923 36.6356C116.5 36.6356 116.168 36.5184 115.927 36.2841C115.692 36.0497 115.575 35.7567 115.575 35.4052ZM120.224 43.579V43.3544C120.224 42.5927 120.334 41.8863 120.556 41.2352C120.777 40.5777 121.096 40.008 121.513 39.5262C121.936 39.038 122.45 38.6604 123.056 38.3934C123.668 38.12 124.358 37.9833 125.126 37.9833C125.901 37.9833 126.591 38.12 127.196 38.3934C127.808 38.6604 128.326 39.038 128.749 39.5262C129.172 40.008 129.494 40.5777 129.716 41.2352C129.937 41.8863 130.048 42.5927 130.048 43.3544V43.579C130.048 44.3407 129.937 45.0471 129.716 45.6981C129.494 46.3492 129.172 46.9188 128.749 47.4071C128.326 47.8889 127.811 48.2665 127.206 48.5399C126.601 48.8068 125.914 48.9403 125.145 48.9403C124.371 48.9403 123.677 48.8068 123.065 48.5399C122.46 48.2665 121.946 47.8889 121.522 47.4071C121.099 46.9188 120.777 46.3492 120.556 45.6981C120.334 45.0471 120.224 44.3407 120.224 43.579ZM122.577 43.3544V43.579C122.577 44.0542 122.626 44.5035 122.724 44.9266C122.821 45.3498 122.974 45.7209 123.183 46.0399C123.391 46.3589 123.658 46.6096 123.983 46.7919C124.309 46.9742 124.696 47.0653 125.145 47.0653C125.582 47.0653 125.959 46.9742 126.278 46.7919C126.604 46.6096 126.871 46.3589 127.079 46.0399C127.287 45.7209 127.44 45.3498 127.538 44.9266C127.642 44.5035 127.694 44.0542 127.694 43.579V43.3544C127.694 42.8856 127.642 42.4429 127.538 42.0262C127.44 41.6031 127.284 41.2287 127.069 40.9032C126.861 40.5777 126.594 40.3238 126.268 40.1415C125.949 39.9527 125.569 39.8583 125.126 39.8583C124.683 39.8583 124.299 39.9527 123.974 40.1415C123.655 40.3238 123.391 40.5777 123.183 40.9032C122.974 41.2287 122.821 41.6031 122.724 42.0262C122.626 42.4429 122.577 42.8856 122.577 43.3544Z" fill="#E4002B"/>
<path d="M93.2308 204.029C90.687 203.407 88.0532 203.028 85.6186 202.116C76.2158 198.592 70.7243 191.365 67.157 182.181C68.8983 181.184 69.6844 179.694 69.5807 177.737C87.3381 190.393 105.008 190.399 122.869 177.765C122.815 179.585 123.453 181.146 125.252 182.096C123.863 186.31 121.758 190.047 118.983 193.39C114.001 199.392 107.675 202.976 99.8605 203.808C99.6476 203.83 99.4456 203.953 99.2382 204.027C97.2348 204.029 95.2315 204.029 93.2308 204.029Z" stroke="#E4002B" stroke-width="2" stroke-miterlimit="10"/>
<path d="M119.979 204.03C125.672 199.076 129.895 193.093 132.578 186.032C132.621 185.917 132.739 185.83 132.908 185.625C134.95 186.567 137.005 187.495 139.044 188.458C145.725 191.619 152.671 194.275 158.758 198.576C161.187 200.293 163.48 202.206 165.833 204.03C150.548 204.03 135.263 204.03 119.979 204.03Z" stroke="#E4002B" stroke-width="2" stroke-miterlimit="10"/>
<path d="M26.6339 204.029C29.6362 201.783 32.4393 199.182 35.6818 197.37C41.4135 194.165 47.4045 191.42 53.3055 188.518C55.3689 187.503 57.4841 186.591 59.6185 185.614C60.4892 187.484 61.2507 189.269 62.1323 190.994C64.7088 196.027 68.2461 200.312 72.4876 204.032C57.203 204.029 41.9185 204.029 26.6339 204.029Z" stroke="#E4002B" stroke-width="2" stroke-miterlimit="10"/>
<path d="M92.161 71.9326C92.1528 71.2066 92.202 70.4778 92.1283 69.76C91.869 67.2271 92.7915 65.3712 95.1415 64.2876C95.8703 64.2876 96.5963 64.2876 97.325 64.2876C99.6723 65.3739 100.595 67.2299 100.338 69.76C100.265 70.4778 100.314 71.2093 100.308 71.9326L100.349 71.9053C97.6062 71.9053 94.8631 71.9053 92.1201 71.9053C92.1201 71.9026 92.161 71.9326 92.161 71.9326Z" stroke="#E4002B" stroke-width="2" stroke-miterlimit="10"/>
<path d="M100.305 71.9326C103.485 72.6231 106.665 73.3136 109.7 73.9741C109.7 81.0869 109.7 87.8476 109.703 94.6056C109.703 95.105 109.686 95.61 109.746 96.104C110.022 98.3885 111.799 99.9197 114.023 99.8214C116.171 99.7259 117.833 98.0855 117.861 95.8174C117.921 91.1338 117.885 86.4502 117.888 81.7665C117.888 80.784 117.888 79.8014 118.074 78.7724C130.228 87.5747 135.503 99.5758 134.679 114.516C135.839 114.516 136.827 114.506 137.815 114.519C140.416 114.555 142.308 116.329 142.267 118.676C142.226 121.004 140.386 122.699 137.843 122.702C110.104 122.707 82.3651 122.707 54.6263 122.702C52.088 122.702 50.2402 121.004 50.1938 118.684C50.1474 116.34 52.0471 114.557 54.64 114.519C55.628 114.506 56.6161 114.516 57.8115 114.516C57.1401 104.134 59.5474 94.742 65.9478 86.5648C68.3279 83.5215 71.0818 80.8658 74.5781 78.5322C74.5781 79.3101 74.5781 79.7905 74.5781 80.2708C74.5781 85.3639 74.5563 90.4569 74.5918 95.5499C74.6109 98.222 76.486 99.9907 78.9943 99.8132C81.1068 99.6659 82.7254 98.0118 82.7417 95.6946C82.7963 88.6064 82.7609 81.5182 82.7609 73.996C85.7359 73.3437 88.9484 72.6367 92.1581 71.9326L92.1172 71.9053C92.1226 73.0407 92.1363 74.1761 92.1363 75.3115C92.139 83.6716 92.1336 92.0318 92.139 100.392C92.1417 102.499 93.1625 104.052 94.8957 104.65C97.696 105.616 100.314 103.58 100.322 100.392C100.341 90.8963 100.341 81.4008 100.346 71.9053L100.305 71.9326Z" stroke="#E4002B" stroke-width="2" stroke-miterlimit="10"/>
<path d="M63.0794 130.967C85.212 130.967 107.295 130.967 129.352 130.967C129.423 131.106 129.496 131.182 129.496 131.259C129.431 137.348 129.709 143.467 129.215 149.521C128.066 163.528 116.513 175.851 102.645 178.354C84.4123 181.643 67.5856 170.466 63.6471 152.431C63.3769 151.191 63.1176 149.919 63.1039 148.658C63.0466 142.801 63.0794 136.944 63.0794 130.967Z" stroke="#E4002B" stroke-width="2" stroke-miterlimit="10"/>
<path d="M82.2941 74.2417C79.783 75.549 77.2775 76.8537 74.5563 78.2702C74.6136 77.0283 74.5344 75.8957 74.7419 74.8175C75.0612 73.1554 76.6388 71.9435 78.3638 71.8125C80.1297 71.6788 81.5544 72.5658 82.2941 74.2417Z" stroke="#E4002B" stroke-width="2" stroke-miterlimit="10"/>
<path d="M117.686 78.1503C115.175 76.843 112.667 75.5329 110.156 74.2255C111.13 72.1921 113.15 71.3078 115.191 72.0392C117.424 72.8362 118.393 75.2108 117.686 78.1503Z" stroke="#E4002B" stroke-width="2" stroke-miterlimit="10"/>
<path d="M100.325 100.389C100.344 90.8939 100.344 81.3983 100.349 71.9028H92.12C92.1255 73.0382 92.1391 74.1737 92.1391 75.3091C92.1391 83.6692 92.1336 92.0293 92.1418 100.389C92.1446 102.499 93.1653 104.049 94.8985 104.647C97.7016 105.611 100.319 103.577 100.325 100.389Z" stroke="#E4002B" stroke-width="2" stroke-miterlimit="10"/>
<defs>
<filter id="filter0_d_2319_32276" x="0" y="0" width="192.033" height="287.5" filterUnits="userSpaceOnUse" color-interpolation-filters="sRGB">
<feFlood flood-opacity="0" result="BackgroundImageFix"/>
<feColorMatrix in="SourceAlpha" type="matrix" values="0 0 0 0 0 0 0 0 0 0 0 0 0 0 0 0 0 0 127 0" result="hardAlpha"/>
<feOffset dy="4"/>
<feGaussianBlur stdDeviation="2"/>
<feComposite in2="hardAlpha" operator="out"/>
<feColorMatrix type="matrix" values="0 0 0 0 0 0 0 0 0 0 0 0 0 0 0 0 0 0 0.25 0"/>
<feBlend mode="normal" in2="BackgroundImageFix" result="effect1_dropShadow_2319_32276"/>
<feBlend mode="normal" in="SourceGraphic" in2="effect1_dropShadow_2319_32276" result="shape"/>
</filter>
</defs>
</svg>
