<svg width="194.3" height="290" viewBox="0 0 193 288" fill="none" xmlns="http://www.w3.org/2000/svg">
<g filter="url(#filter0_d_2319_32275)">
<path d="M4 15C4 6.71572 10.7157 0 19 0H173.033C181.317 0 188.033 6.71573 188.033 15V264.5C188.033 272.784 181.317 279.5 173.033 279.5H19C10.7157 279.5 4 272.784 4 264.5V15Z" fill="white"/>
</g>
<path d="M60.5868 233.903V248.122H58.1356V233.903H60.5868ZM65.7333 239.811V248.122H63.3797V237.555H65.5965L65.7333 239.811ZM65.3133 242.448L64.5516 242.438C64.5581 241.689 64.6623 241.003 64.8641 240.378C65.0725 239.753 65.3589 239.215 65.7235 238.766C66.0946 238.317 66.5373 237.972 67.0516 237.731C67.5659 237.484 68.1389 237.36 68.7704 237.36C69.2782 237.36 69.7372 237.432 70.1473 237.575C70.564 237.711 70.9188 237.936 71.2118 238.249C71.5113 238.561 71.7391 238.968 71.8954 239.469C72.0516 239.964 72.1297 240.573 72.1297 241.295V248.122H69.7665V241.286C69.7665 240.778 69.6916 240.378 69.5419 240.085C69.3986 239.785 69.187 239.573 68.9071 239.45C68.6337 239.32 68.2919 239.254 67.8817 239.254C67.4781 239.254 67.1167 239.339 66.7977 239.508C66.4787 239.678 66.2085 239.909 65.9872 240.202C65.7723 240.495 65.6063 240.833 65.4891 241.217C65.3719 241.601 65.3133 242.012 65.3133 242.448ZM80.9774 245.934V233.122H83.3407V248.122H81.202L80.9774 245.934ZM74.1024 242.956V242.751C74.1024 241.95 74.1968 241.221 74.3856 240.563C74.5744 239.899 74.8478 239.329 75.2059 238.854C75.564 238.372 76.0002 238.004 76.5145 237.751C77.0288 237.49 77.6083 237.36 78.2528 237.36C78.8908 237.36 79.4507 237.484 79.9325 237.731C80.4143 237.978 80.8244 238.333 81.1629 238.795C81.5015 239.251 81.7717 239.798 81.9735 240.436C82.1753 241.068 82.3185 241.771 82.4032 242.545V243.2C82.3185 243.955 82.1753 244.645 81.9735 245.27C81.7717 245.895 81.5015 246.435 81.1629 246.891C80.8244 247.347 80.411 247.698 79.9227 247.946C79.4409 248.193 78.8778 248.317 78.2333 248.317C77.5952 248.317 77.0191 248.183 76.5047 247.917C75.9969 247.65 75.564 247.275 75.2059 246.794C74.8478 246.312 74.5744 245.745 74.3856 245.094C74.1968 244.437 74.1024 243.724 74.1024 242.956ZM76.4559 242.751V242.956C76.4559 243.437 76.4982 243.887 76.5829 244.303C76.674 244.72 76.814 245.088 77.0028 245.407C77.1916 245.719 77.4357 245.967 77.7352 246.149C78.0412 246.325 78.4058 246.413 78.829 246.413C79.3628 246.413 79.8023 246.295 80.1473 246.061C80.4924 245.827 80.7626 245.511 80.9579 245.114C81.1597 244.71 81.2964 244.261 81.368 243.766V241.999C81.329 241.614 81.2476 241.256 81.1239 240.924C81.0067 240.592 80.8472 240.303 80.6454 240.055C80.4435 239.801 80.1929 239.606 79.8934 239.469C79.6004 239.326 79.2521 239.254 78.8485 239.254C78.4188 239.254 78.0542 239.346 77.7547 239.528C77.4553 239.71 77.2079 239.961 77.0126 240.28C76.8238 240.599 76.6838 240.97 76.5926 241.393C76.5015 241.816 76.4559 242.269 76.4559 242.751ZM88.3212 237.555V248.122H85.9579V237.555H88.3212ZM85.8016 234.782C85.8016 234.424 85.9188 234.128 86.1532 233.893C86.3941 233.652 86.7261 233.532 87.1493 233.532C87.5659 233.532 87.8947 233.652 88.1356 233.893C88.3765 234.128 88.4969 234.424 88.4969 234.782C88.4969 235.133 88.3765 235.426 88.1356 235.661C87.8947 235.895 87.5659 236.012 87.1493 236.012C86.7261 236.012 86.3941 235.895 86.1532 235.661C85.9188 235.426 85.8016 235.133 85.8016 234.782ZM93.2626 239.567V248.122H90.909V237.555H93.1551L93.2626 239.567ZM96.495 237.487L96.4754 239.674C96.3322 239.648 96.176 239.629 96.0067 239.616C95.8439 239.603 95.6812 239.596 95.5184 239.596C95.1148 239.596 94.76 239.655 94.454 239.772C94.148 239.883 93.8908 240.045 93.6825 240.26C93.4807 240.469 93.3244 240.723 93.2137 241.022C93.1031 241.322 93.0379 241.657 93.0184 242.028L92.4813 242.067C92.4813 241.403 92.5464 240.788 92.6766 240.221C92.8068 239.655 93.0021 239.157 93.2626 238.727C93.5295 238.297 93.8615 237.962 94.2587 237.721C94.6623 237.48 95.1278 237.36 95.6551 237.36C95.7984 237.36 95.9514 237.373 96.1141 237.399C96.2834 237.425 96.4103 237.454 96.495 237.487ZM102.432 248.317C101.651 248.317 100.945 248.19 100.313 247.936C99.6883 247.676 99.1545 247.314 98.7118 246.852C98.2756 246.39 97.9403 245.846 97.7059 245.221C97.4715 244.596 97.3544 243.922 97.3544 243.2V242.809C97.3544 241.982 97.4748 241.234 97.7157 240.563C97.9566 239.892 98.2919 239.32 98.7215 238.844C99.1512 238.363 99.659 237.995 100.245 237.741C100.831 237.487 101.466 237.36 102.149 237.36C102.904 237.36 103.565 237.487 104.132 237.741C104.698 237.995 105.167 238.353 105.538 238.815C105.916 239.271 106.196 239.814 106.378 240.446C106.567 241.077 106.661 241.774 106.661 242.536V243.542H98.4969V241.852H104.337V241.667C104.324 241.243 104.239 240.846 104.083 240.475C103.933 240.104 103.702 239.805 103.39 239.577C103.077 239.349 102.66 239.235 102.14 239.235C101.749 239.235 101.401 239.32 101.095 239.489C100.795 239.652 100.544 239.889 100.343 240.202C100.141 240.514 99.9846 240.892 99.8739 241.335C99.7697 241.771 99.7176 242.262 99.7176 242.809V243.2C99.7176 243.662 99.7795 244.092 99.9032 244.489C100.033 244.879 100.222 245.221 100.47 245.514C100.717 245.807 101.016 246.038 101.368 246.208C101.72 246.37 102.12 246.452 102.569 246.452C103.136 246.452 103.64 246.338 104.083 246.11C104.526 245.882 104.91 245.56 105.235 245.143L106.475 246.344C106.248 246.676 105.951 246.995 105.587 247.301C105.222 247.601 104.776 247.845 104.249 248.034C103.728 248.223 103.123 248.317 102.432 248.317ZM112.813 246.442C113.197 246.442 113.543 246.367 113.848 246.217C114.161 246.061 114.412 245.846 114.6 245.573C114.796 245.299 114.903 244.984 114.923 244.626H117.14C117.126 245.309 116.925 245.931 116.534 246.491C116.143 247.051 115.626 247.497 114.981 247.829C114.337 248.154 113.624 248.317 112.843 248.317C112.035 248.317 111.332 248.18 110.733 247.907C110.134 247.627 109.636 247.243 109.239 246.754C108.842 246.266 108.543 245.703 108.341 245.065C108.145 244.427 108.048 243.743 108.048 243.014V242.672C108.048 241.943 108.145 241.26 108.341 240.622C108.543 239.977 108.842 239.411 109.239 238.922C109.636 238.434 110.134 238.053 110.733 237.78C111.332 237.5 112.032 237.36 112.833 237.36C113.679 237.36 114.421 237.529 115.059 237.868C115.697 238.2 116.199 238.665 116.563 239.264C116.934 239.857 117.126 240.547 117.14 241.335H114.923C114.903 240.944 114.806 240.592 114.63 240.28C114.46 239.961 114.22 239.707 113.907 239.518C113.601 239.329 113.233 239.235 112.804 239.235C112.328 239.235 111.934 239.333 111.622 239.528C111.309 239.717 111.065 239.977 110.89 240.309C110.714 240.635 110.587 241.003 110.509 241.413C110.437 241.816 110.401 242.236 110.401 242.672V243.014C110.401 243.45 110.437 243.874 110.509 244.284C110.58 244.694 110.704 245.062 110.88 245.387C111.062 245.706 111.309 245.963 111.622 246.159C111.934 246.348 112.332 246.442 112.813 246.442ZM123.79 237.555V239.274H117.833V237.555H123.79ZM119.552 234.967H121.905V245.202C121.905 245.527 121.951 245.778 122.042 245.954C122.14 246.123 122.273 246.237 122.442 246.295C122.612 246.354 122.81 246.383 123.038 246.383C123.201 246.383 123.357 246.374 123.507 246.354C123.656 246.335 123.777 246.315 123.868 246.295L123.878 248.092C123.682 248.151 123.455 248.203 123.194 248.249C122.94 248.294 122.647 248.317 122.315 248.317C121.775 248.317 121.296 248.223 120.88 248.034C120.463 247.838 120.138 247.523 119.903 247.086C119.669 246.65 119.552 246.071 119.552 245.348V234.967ZM124.923 242.956V242.731C124.923 241.969 125.033 241.263 125.255 240.612C125.476 239.954 125.795 239.385 126.212 238.903C126.635 238.415 127.149 238.037 127.755 237.77C128.367 237.497 129.057 237.36 129.825 237.36C130.6 237.36 131.29 237.497 131.895 237.77C132.507 238.037 133.025 238.415 133.448 238.903C133.871 239.385 134.194 239.954 134.415 240.612C134.636 241.263 134.747 241.969 134.747 242.731V242.956C134.747 243.717 134.636 244.424 134.415 245.075C134.194 245.726 133.871 246.295 133.448 246.784C133.025 247.266 132.511 247.643 131.905 247.917C131.3 248.183 130.613 248.317 129.845 248.317C129.07 248.317 128.376 248.183 127.765 247.917C127.159 247.643 126.645 247.266 126.222 246.784C125.798 246.295 125.476 245.726 125.255 245.075C125.033 244.424 124.923 243.717 124.923 242.956ZM127.276 242.731V242.956C127.276 243.431 127.325 243.88 127.423 244.303C127.52 244.726 127.673 245.098 127.882 245.417C128.09 245.736 128.357 245.986 128.682 246.169C129.008 246.351 129.395 246.442 129.845 246.442C130.281 246.442 130.658 246.351 130.977 246.169C131.303 245.986 131.57 245.736 131.778 245.417C131.987 245.098 132.14 244.726 132.237 244.303C132.341 243.88 132.393 243.431 132.393 242.956V242.731C132.393 242.262 132.341 241.82 132.237 241.403C132.14 240.98 131.983 240.605 131.768 240.28C131.56 239.954 131.293 239.7 130.968 239.518C130.649 239.329 130.268 239.235 129.825 239.235C129.382 239.235 128.998 239.329 128.673 239.518C128.354 239.7 128.09 239.954 127.882 240.28C127.673 240.605 127.52 240.98 127.423 241.403C127.325 241.82 127.276 242.262 127.276 242.731Z" fill="#E4002B"/>
<path d="M71.036 32.6629H73.4774V42.1649C73.4774 43.2456 73.243 44.1505 72.7743 44.8797C72.3055 45.6089 71.6675 46.159 70.8602 46.5301C70.0594 46.8947 69.1643 47.077 68.1747 47.077C67.1525 47.077 66.2411 46.8947 65.4403 46.5301C64.6395 46.159 64.008 45.6089 63.5458 44.8797C63.09 44.1505 62.8622 43.2456 62.8622 42.1649V32.6629H65.3036V42.1649C65.3036 42.8484 65.4208 43.4116 65.6551 43.8543C65.8895 44.2905 66.2215 44.6128 66.6512 44.8211C67.0809 45.0294 67.5887 45.1336 68.1747 45.1336C68.7606 45.1336 69.2652 45.0294 69.6883 44.8211C70.118 44.6128 70.4501 44.2905 70.6844 43.8543C70.9188 43.4116 71.036 42.8484 71.036 42.1649V32.6629ZM81.8368 44.0203C81.8368 43.7859 81.7782 43.5744 81.661 43.3856C81.5438 43.1902 81.3192 43.0145 80.9872 42.8582C80.6616 42.702 80.1799 42.5587 79.5419 42.4285C78.982 42.3048 78.4676 42.1583 77.9989 41.9891C77.5366 41.8133 77.1395 41.6017 76.8075 41.3543C76.4754 41.1069 76.2183 40.8139 76.036 40.4754C75.8537 40.1369 75.7626 39.7462 75.7626 39.3035C75.7626 38.8738 75.857 38.4669 76.0458 38.0828C76.2346 37.6987 76.5047 37.3602 76.8563 37.0672C77.2079 36.7742 77.6343 36.5431 78.1356 36.3738C78.6434 36.2046 79.2098 36.1199 79.8348 36.1199C80.7202 36.1199 81.4787 36.2697 82.1102 36.5692C82.7482 36.8621 83.2365 37.2625 83.5751 37.7703C83.9136 38.2716 84.0829 38.838 84.0829 39.4695H81.7294C81.7294 39.1896 81.6577 38.9292 81.5145 38.6883C81.3778 38.4409 81.1695 38.2423 80.8895 38.0926C80.6096 37.9363 80.258 37.8582 79.8348 37.8582C79.4312 37.8582 79.0959 37.9233 78.829 38.0535C78.5685 38.1772 78.3732 38.34 78.243 38.5418C78.1193 38.7436 78.0575 38.965 78.0575 39.2059C78.0575 39.3817 78.09 39.5412 78.1551 39.6844C78.2268 39.8211 78.3439 39.9481 78.5067 40.0652C78.6695 40.1759 78.8908 40.2801 79.1708 40.3777C79.4572 40.4754 79.8153 40.5698 80.245 40.6609C81.0523 40.8302 81.7456 41.0483 82.3251 41.3152C82.911 41.5757 83.3602 41.9142 83.6727 42.3309C83.9852 42.741 84.1415 43.2619 84.1415 43.8934C84.1415 44.3621 84.0406 44.7918 83.8387 45.1824C83.6434 45.5665 83.357 45.9018 82.9794 46.1883C82.6018 46.4682 82.1493 46.6863 81.6219 46.8426C81.1011 46.9988 80.5152 47.077 79.8641 47.077C78.9071 47.077 78.0965 46.9077 77.4325 46.5692C76.7684 46.2241 76.2639 45.7846 75.9188 45.2508C75.5803 44.7104 75.411 44.1505 75.411 43.5711H77.6864C77.7124 44.0073 77.8329 44.3556 78.0477 44.616C78.2691 44.8699 78.5425 45.0555 78.868 45.1727C79.2001 45.2833 79.5419 45.3387 79.8934 45.3387C80.3166 45.3387 80.6714 45.2833 80.9579 45.1727C81.2443 45.0555 81.4624 44.8992 81.6122 44.7039C81.7619 44.5021 81.8368 44.2742 81.8368 44.0203ZM92.5594 44.3914V36.3152H94.9227V46.8817H92.6962L92.5594 44.3914ZM92.8915 42.1942L93.6825 42.1746C93.6825 42.8843 93.6044 43.5386 93.4481 44.1375C93.2919 44.73 93.051 45.2475 92.7254 45.6902C92.3999 46.1264 91.9833 46.4682 91.4754 46.7156C90.9676 46.9565 90.3589 47.077 89.6493 47.077C89.135 47.077 88.6629 47.0021 88.2333 46.8524C87.8036 46.7026 87.4325 46.4715 87.12 46.159C86.814 45.8465 86.5764 45.4396 86.4071 44.9383C86.2378 44.437 86.1532 43.838 86.1532 43.1414V36.3152H88.5067V43.1609C88.5067 43.5451 88.5523 43.8673 88.6434 44.1277C88.7346 44.3817 88.8583 44.5867 89.0145 44.743C89.1708 44.8992 89.3531 45.0099 89.5614 45.075C89.7697 45.1401 89.9911 45.1727 90.2254 45.1727C90.896 45.1727 91.4234 45.0425 91.8075 44.782C92.1981 44.5151 92.4748 44.157 92.6376 43.7078C92.8068 43.2586 92.8915 42.754 92.8915 42.1942ZM103.292 44.7625V39.7234C103.292 39.3458 103.223 39.0203 103.087 38.7469C102.95 38.4734 102.742 38.2619 102.462 38.1121C102.188 37.9624 101.843 37.8875 101.427 37.8875C101.043 37.8875 100.71 37.9526 100.431 38.0828C100.151 38.213 99.9325 38.3888 99.7762 38.6102C99.62 38.8315 99.5419 39.0822 99.5419 39.3621H97.1981C97.1981 38.9455 97.299 38.5418 97.5008 38.1512C97.7027 37.7606 97.9956 37.4123 98.3797 37.1063C98.7639 36.8003 99.2228 36.5594 99.7567 36.3836C100.291 36.2078 100.89 36.1199 101.554 36.1199C102.348 36.1199 103.051 36.2534 103.663 36.5203C104.281 36.7873 104.766 37.1909 105.118 37.7313C105.476 38.2651 105.655 38.9357 105.655 39.743V44.4402C105.655 44.922 105.688 45.355 105.753 45.7391C105.824 46.1167 105.925 46.4455 106.056 46.7254V46.8817H103.643C103.533 46.6277 103.445 46.3055 103.38 45.9149C103.321 45.5177 103.292 45.1336 103.292 44.7625ZM103.634 40.4559L103.653 41.9109H101.964C101.528 41.9109 101.143 41.9533 100.811 42.0379C100.479 42.116 100.203 42.2332 99.9813 42.3895C99.76 42.5457 99.5939 42.7345 99.4833 42.9559C99.3726 43.1772 99.3172 43.4279 99.3172 43.7078C99.3172 43.9878 99.3823 44.2449 99.5126 44.4793C99.6428 44.7072 99.8316 44.8862 100.079 45.0164C100.333 45.1466 100.639 45.2117 100.997 45.2117C101.479 45.2117 101.899 45.1141 102.257 44.9188C102.621 44.7169 102.908 44.4728 103.116 44.1863C103.324 43.8934 103.435 43.6167 103.448 43.3563L104.21 44.4012C104.132 44.6681 103.998 44.9546 103.809 45.2606C103.621 45.5665 103.373 45.8595 103.067 46.1395C102.768 46.4129 102.406 46.6375 101.983 46.8133C101.567 46.9891 101.085 47.077 100.538 47.077C99.8478 47.077 99.2326 46.9402 98.6922 46.6668C98.1519 46.3869 97.7287 46.0125 97.4227 45.5438C97.1167 45.0685 96.9637 44.5314 96.9637 43.9324C96.9637 43.3725 97.0679 42.8777 97.2762 42.4481C97.4911 42.0119 97.8036 41.6473 98.2137 41.3543C98.6304 41.0613 99.1382 40.84 99.7372 40.6902C100.336 40.534 101.02 40.4559 101.788 40.4559H103.634ZM110.479 38.327V46.8817H108.126V36.3152H110.372L110.479 38.327ZM113.712 36.2469L113.692 38.4344C113.549 38.4083 113.393 38.3888 113.223 38.3758C113.061 38.3628 112.898 38.3563 112.735 38.3563C112.332 38.3563 111.977 38.4149 111.671 38.532C111.365 38.6427 111.108 38.8055 110.899 39.0203C110.697 39.2287 110.541 39.4826 110.431 39.782C110.32 40.0815 110.255 40.4168 110.235 40.7879L109.698 40.827C109.698 40.1629 109.763 39.5477 109.893 38.9813C110.024 38.4149 110.219 37.9168 110.479 37.4871C110.746 37.0574 111.078 36.7221 111.475 36.4813C111.879 36.2404 112.345 36.1199 112.872 36.1199C113.015 36.1199 113.168 36.133 113.331 36.159C113.5 36.185 113.627 36.2143 113.712 36.2469ZM117.706 36.3152V46.8817H115.343V36.3152H117.706ZM115.186 33.5418C115.186 33.1837 115.304 32.8875 115.538 32.6531C115.779 32.4123 116.111 32.2918 116.534 32.2918C116.951 32.2918 117.279 32.4123 117.52 32.6531C117.761 32.8875 117.882 33.1837 117.882 33.5418C117.882 33.8934 117.761 34.1863 117.52 34.4207C117.279 34.6551 116.951 34.7723 116.534 34.7723C116.111 34.7723 115.779 34.6551 115.538 34.4207C115.304 34.1863 115.186 33.8934 115.186 33.5418ZM119.835 41.7156V41.491C119.835 40.7293 119.946 40.0229 120.167 39.3719C120.388 38.7143 120.707 38.1447 121.124 37.6629C121.547 37.1746 122.061 36.797 122.667 36.5301C123.279 36.2567 123.969 36.1199 124.737 36.1199C125.512 36.1199 126.202 36.2567 126.807 36.5301C127.419 36.797 127.937 37.1746 128.36 37.6629C128.783 38.1447 129.106 38.7143 129.327 39.3719C129.548 40.0229 129.659 40.7293 129.659 41.491V41.7156C129.659 42.4774 129.548 43.1837 129.327 43.8348C129.106 44.4858 128.783 45.0555 128.36 45.5438C127.937 46.0255 127.423 46.4031 126.817 46.6766C126.212 46.9435 125.525 47.077 124.757 47.077C123.982 47.077 123.289 46.9435 122.677 46.6766C122.071 46.4031 121.557 46.0255 121.134 45.5438C120.71 45.0555 120.388 44.4858 120.167 43.8348C119.946 43.1837 119.835 42.4774 119.835 41.7156ZM122.188 41.491V41.7156C122.188 42.1909 122.237 42.6401 122.335 43.0633C122.432 43.4865 122.585 43.8576 122.794 44.1766C123.002 44.4956 123.269 44.7462 123.595 44.9285C123.92 45.1108 124.307 45.202 124.757 45.202C125.193 45.202 125.571 45.1108 125.89 44.9285C126.215 44.7462 126.482 44.4956 126.69 44.1766C126.899 43.8576 127.052 43.4865 127.149 43.0633C127.253 42.6401 127.306 42.1909 127.306 41.7156V41.491C127.306 41.0223 127.253 40.5796 127.149 40.1629C127.052 39.7397 126.895 39.3654 126.681 39.0399C126.472 38.7143 126.205 38.4604 125.88 38.2781C125.561 38.0893 125.18 37.9949 124.737 37.9949C124.294 37.9949 123.91 38.0893 123.585 38.2781C123.266 38.4604 123.002 38.7143 122.794 39.0399C122.585 39.3654 122.432 39.7397 122.335 40.1629C122.237 40.5796 122.188 41.0223 122.188 41.491Z" fill="#E4002B"/>
<path d="M123.331 103.68C123.713 101.587 124.179 99.5081 124.465 97.4075C125.093 92.7912 125.314 88.1532 124.187 83.5803C123.143 79.3321 121.148 75.7842 116.557 74.4271C116.214 74.3261 115.878 74.0012 115.657 73.6944C112.272 68.9987 107.547 66.3856 102.077 64.9311C101.037 64.6532 99.9638 64.498 98.9016 64.285C97.0808 64.285 95.2565 64.285 93.4357 64.285C92.2399 64.5124 91.0332 64.6856 89.8519 64.9708C83.7609 66.4434 78.8766 69.9335 74.5739 74.3008C68.2662 80.7037 65.293 88.3157 66.6694 97.3678C66.9946 99.5045 67.4823 101.616 67.8977 103.738C65.3616 104.182 64.4404 105.193 64.4838 107.896C64.5632 112.761 66.0697 117.266 68.3276 121.525C68.6745 122.182 69.3572 122.654 69.8522 123.239C70.2532 123.712 70.8312 124.181 70.9504 124.733C72.3232 130.97 75.3651 136.29 80.0254 140.575C86.3873 146.418 93.7861 149.082 102.243 145.967C111.597 142.52 117.034 135.316 119.92 126.018C120.303 124.784 120.364 123.477 121.81 122.849C122.254 122.654 122.604 122.091 122.854 121.619C125.097 117.396 126.549 112.92 126.726 108.123C126.835 105.24 125.975 104.294 123.331 103.68Z" stroke="#E4002B" stroke-width="2" stroke-miterlimit="10"/>
<path d="M87.5578 183.161C88.6922 179.963 89.6892 176.711 91.0006 173.589C92.0917 170.994 92.4024 168.814 90.3793 166.406C89.1763 164.973 88.4935 162.974 87.9805 161.119C86.7413 156.64 88.5693 153.767 93.1574 153.113C95.1299 152.832 97.265 152.969 99.2122 153.413C102.836 154.239 104.454 156.928 103.414 160.52C102.731 162.884 101.662 165.219 100.325 167.283C99.2158 168.994 99.0099 170.369 99.7758 172.239C101.084 175.429 102.12 178.732 103.273 181.984C103.417 182.392 103.598 182.785 103.923 183.586C108.201 170.113 112.355 157.033 116.542 143.848C116.914 144.036 117.2 144.148 117.456 144.31C125.083 149.197 133.146 153.189 141.936 155.452C150.48 157.654 153.377 163.125 154.349 170.766C155.144 177.021 154.089 183.197 153.294 189.369C153.229 189.881 152.571 190.462 152.048 190.755C145.509 194.407 138.569 197.103 131.372 199.143C116.192 203.445 100.737 204.838 85.0109 203.604C72.0341 202.582 59.4765 199.828 47.468 194.761C44.5417 193.526 41.7311 192.018 38.8879 190.585C38.4977 190.386 38.01 189.942 37.9631 189.563C37.1141 182.666 35.8822 175.765 37.1574 168.799C37.9811 164.291 39.6899 160.18 43.8373 157.711C45.528 156.704 47.4716 156.055 49.3791 155.503C58.0062 153.001 66.0443 149.24 73.5984 144.411C73.8296 144.263 74.0572 144.119 74.2957 143.985C74.3679 143.946 74.4655 143.956 74.7003 143.924C78.8585 156.993 83.0275 170.084 87.1929 183.175C87.3193 183.168 87.4386 183.164 87.5578 183.161Z" stroke="#E4002B" stroke-width="2" stroke-miterlimit="10"/>
<defs>
<filter id="filter0_d_2319_32275" x="0" y="0" width="192.033" height="287.5" filterUnits="userSpaceOnUse" color-interpolation-filters="sRGB">
<feFlood flood-opacity="0" result="BackgroundImageFix"/>
<feColorMatrix in="SourceAlpha" type="matrix" values="0 0 0 0 0 0 0 0 0 0 0 0 0 0 0 0 0 0 127 0" result="hardAlpha"/>
<feOffset dy="4"/>
<feGaussianBlur stdDeviation="2"/>
<feComposite in2="hardAlpha" operator="out"/>
<feColorMatrix type="matrix" values="0 0 0 0 0 0 0 0 0 0 0 0 0 0 0 0 0 0 0.25 0"/>
<feBlend mode="normal" in2="BackgroundImageFix" result="effect1_dropShadow_2319_32275"/>
<feBlend mode="normal" in="SourceGraphic" in2="effect1_dropShadow_2319_32275" result="shape"/>
</filter>
</defs>
</svg>
