<svg version="1.1" id="Layer_1" xmlns="http://www.w3.org/2000/svg" xmlns:xlink="http://www.w3.org/1999/xlink" x="0px" y="0px"
	 width="220%" viewBox="0 0 1976 620" enable-background="new 0 0 1976 620" xml:space="preserve">
<path fill="#FFFFFF" opacity="1.000000" stroke="none" 
	d="
M1243.000000,621.000000 
	C828.666687,621.000000 414.833344,621.000000 1.000000,621.000000 
	C1.000000,414.333344 1.000000,207.666672 1.000000,1.000000 
	C659.666687,1.000000 1318.333374,1.000000 1977.000000,1.000000 
	C1977.000000,207.666672 1977.000000,414.333344 1977.000000,621.000000 
	C1732.500000,621.000000 1488.000000,621.000000 1243.000000,621.000000 
M286.167816,343.500061 
	C286.167816,235.973434 286.167816,128.446793 286.167816,19.873327 
	C244.693420,54.191650 204.135986,87.751221 162.784302,121.968002 
	C162.503464,119.321648 162.207657,117.744507 162.189713,116.164200 
	C162.089447,107.335617 162.062790,98.506226 161.998505,89.677200 
	C161.936646,81.183815 161.253189,80.521866 152.948914,80.488701 
	C129.478104,80.394974 106.007355,80.284325 82.536629,80.168831 
	C75.593437,80.134666 74.013191,81.636993 74.008888,88.666183 
	C73.988693,121.657730 73.945274,154.649490 74.051445,187.640701 
	C74.070152,193.451614 71.972672,197.845322 67.461975,201.424271 
	C59.898403,207.425507 52.450115,213.574097 45.020962,219.742157 
	C34.306656,228.637711 23.652861,237.606125 11.820511,247.508133 
	C14.863821,247.508133 16.457191,247.508179 18.050562,247.508148 
	C32.880104,247.507797 47.709648,247.507217 62.539188,247.507080 
	C73.489609,247.506989 73.504303,247.507248 73.490540,258.628021 
	C73.385162,343.765625 73.270630,428.903229 73.167992,514.040833 
	C73.156036,523.962402 74.733582,526.506042 82.943558,529.835510 
	C146.776733,555.722412 210.612640,581.602722 274.451752,607.475037 
	C278.202423,608.995117 281.988342,610.428162 286.167816,612.061951 
	C286.167816,522.435181 286.167816,433.467651 286.167816,343.500061 
M1582.329956,151.116348 
	C1576.109009,148.380859 1570.012817,145.305420 1563.645020,142.970535 
	C1539.966919,134.288681 1515.182129,133.144547 1490.345947,133.048050 
	C1435.529419,132.835052 1380.711792,132.839081 1325.894653,132.868240 
	C1313.625732,132.874771 1312.329346,130.440079 1312.361206,146.357880 
	C1312.601318,266.335541 1312.490234,386.313904 1312.495605,506.292023 
	C1312.495972,514.745300 1313.598877,515.897522 1321.935425,515.825317 
	C1343.418213,515.639221 1364.899902,515.292053 1386.382935,515.190613 
	C1425.871094,515.004089 1465.361572,515.139282 1504.847656,514.769470 
	C1530.820801,514.526245 1556.273438,510.765076 1580.150146,499.899658 
	C1624.465088,479.733398 1650.674805,447.097717 1650.144165,396.522064 
	C1649.942383,377.297516 1645.646606,359.228271 1633.632446,343.701080 
	C1619.482544,325.414032 1600.023193,315.459045 1578.381226,309.048523 
	C1574.514282,307.903137 1570.648315,306.754303 1566.781982,305.607025 
	C1566.636353,305.216187 1566.490723,304.825348 1566.345093,304.434479 
	C1597.454590,289.937714 1619.651611,268.289825 1623.304810,232.638428 
	C1626.932373,197.235687 1615.095825,169.089890 1582.329956,151.116348 
M1136.280273,519.865479 
	C1139.545898,519.234558 1142.819458,518.642456 1146.075806,517.966980 
	C1203.984009,505.954407 1246.111694,473.934937 1269.983154,419.337555 
	C1294.032837,364.332947 1294.707886,307.946686 1277.994019,251.017624 
	C1260.631592,191.878967 1221.895874,153.460587 1163.242798,134.969742 
	C1115.967163,120.065765 1068.455078,120.588203 1021.089966,134.007172 
	C966.201782,149.557465 928.118896,184.096802 908.003052,237.639877 
	C887.261719,292.847717 887.499878,348.573761 905.651550,404.380737 
	C920.409607,449.754242 949.244995,482.997650 992.417053,503.572296 
	C1024.627441,518.922974 1059.059326,524.110229 1094.256714,524.251953 
	C1107.970093,524.307129 1121.694824,521.483459 1136.280273,519.865479 
M852.455872,264.954193 
	C889.511658,221.283325 926.567383,177.612473 964.422607,132.999435 
	C961.134460,132.999435 959.493652,132.997101 957.852844,132.999786 
	C924.861084,133.053619 891.868591,133.238449 858.878174,133.053467 
	C852.196838,133.016022 847.564270,135.464157 843.549561,140.543213 
	C801.631775,193.572952 759.626587,246.533569 717.636475,299.506042 
	C716.398193,301.068146 715.059509,302.550690 712.837036,305.165100 
	C712.837036,301.644501 712.835388,299.834137 712.837280,298.023773 
	C712.891418,246.534912 712.952332,195.046051 712.994568,143.557190 
	C713.002502,133.902390 711.929382,132.834656 702.498169,132.833252 
	C676.341003,132.829346 650.183777,132.829132 624.026611,132.833130 
	C614.648926,132.834564 613.832520,133.659210 613.832275,143.138321 
	C613.830322,220.957626 613.831604,298.776947 613.831848,376.596252 
	C613.831970,420.088409 613.823730,463.580566 613.840149,507.072723 
	C613.842834,514.201782 615.508911,515.998779 622.034607,515.989929 
	C649.527588,515.952637 677.020569,515.894165 704.513550,515.834473 
	C712.053345,515.818115 712.834106,515.041504 712.834900,507.594635 
	C712.839050,470.434662 712.766663,433.274323 712.967651,396.115417 
	C712.984070,393.081238 714.167603,389.546478 715.981262,387.121033 
	C722.157043,378.862000 728.858093,370.995697 735.558716,362.732697 
	C736.960815,364.463684 738.262634,365.964142 739.448975,367.550964 
	C774.731506,414.742126 810.021667,461.927551 845.244141,509.163483 
	C848.585999,513.645203 852.618042,515.911316 858.329895,515.893005 
	C893.323242,515.780701 928.317078,515.850952 963.310730,515.805115 
	C965.753357,515.801941 968.195435,515.353455 971.187805,515.057678 
	C969.814819,513.101318 968.834961,511.589661 967.742126,510.164612 
	C918.511658,445.967438 869.271667,381.777527 820.031250,317.587952 
	C815.083984,311.138672 815.056274,308.942749 820.272278,302.779022 
	C830.813110,290.323120 841.421509,277.924408 852.455872,264.954193 
M1773.161011,225.505524 
	C1773.108032,221.840973 1772.971802,218.175323 1773.021118,214.512146 
	C1773.098389,208.772766 1775.174072,206.764938 1781.014526,206.875290 
	C1788.170044,207.010483 1795.322388,207.472580 1802.476562,207.480606 
	C1851.141968,207.535187 1899.807251,207.517136 1948.472656,207.495926 
	C1955.896362,207.492691 1957.479736,205.883392 1957.496582,198.293289 
	C1957.537964,179.641068 1957.534546,160.988663 1957.502319,142.336411 
	C1957.486816,133.303452 1956.973022,132.833267 1947.839111,132.832916 
	C1859.508057,132.829498 1771.177124,132.828598 1682.846069,132.832764 
	C1671.831665,132.833282 1671.830444,132.848862 1671.830444,143.913223 
	C1671.830444,264.576752 1671.830811,385.240265 1671.832397,505.903778 
	C1671.832397,507.403412 1671.918823,508.906433 1671.846069,510.402069 
	C1671.657593,514.273743 1673.709106,515.823181 1677.319336,515.833130 
	C1678.319336,515.835876 1679.319214,515.838867 1680.319214,515.839294 
	C1769.815430,515.877502 1859.311523,515.916260 1948.807739,515.951904 
	C1955.814453,515.954712 1957.478760,514.292236 1957.494263,506.960480 
	C1957.533936,488.309631 1957.518433,469.658600 1957.505737,451.007660 
	C1957.499512,441.783905 1957.192505,441.491333 1947.970215,441.491028 
	C1892.804932,441.489166 1837.639771,441.492035 1782.474487,441.488098 
	C1773.747070,441.487488 1773.023315,440.824615 1773.012817,432.215607 
	C1772.981689,406.716309 1772.992676,381.216919 1773.006714,355.717590 
	C1773.010986,348.014313 1773.530273,347.513092 1781.237061,347.512085 
	C1818.236084,347.507294 1855.235107,347.516327 1892.234131,347.504578 
	C1899.430176,347.502289 1900.867920,345.908752 1900.851562,338.612366 
	C1900.809326,319.797638 1900.819214,300.982758 1900.846069,282.167969 
	C1900.855591,275.465149 1899.055176,273.330627 1892.435303,273.210114 
	C1886.617188,273.104156 1880.792358,273.452179 1874.969971,273.478363 
	C1844.145752,273.616882 1813.321533,273.741364 1782.497314,273.813599 
	C1774.746094,273.831787 1772.990845,272.040283 1773.008545,264.491852 
	C1773.038330,251.828812 1773.113037,239.165909 1773.161011,225.505524 
M436.001953,429.500000 
	C435.996216,422.502563 436.184998,415.498016 435.928650,408.509766 
	C435.684082,401.841522 432.331299,399.752411 425.956604,401.773132 
	C422.635223,402.826050 419.345795,404.108673 415.940613,404.747620 
	C390.623718,409.498047 365.284241,414.128693 339.945374,418.761536 
	C331.724762,420.264526 330.497406,421.625366 330.493164,429.878784 
	C330.482208,451.204468 330.229401,472.534210 330.565399,493.854614 
	C330.877319,513.650696 331.768188,533.439026 332.532593,553.225769 
	C332.730316,558.344482 334.311798,559.404724 338.706757,557.684265 
	C368.833038,545.890686 398.936096,534.037842 429.049316,522.210815 
	C433.944946,520.288025 436.242554,516.846619 436.212006,511.464569 
	C436.058807,484.476837 436.056976,457.488281 436.001953,429.500000 
M331.180908,395.288391 
	C332.609039,395.876251 334.119202,397.119141 335.452850,396.952209 
	C351.449036,394.949524 367.451721,392.952026 383.386719,390.520630 
	C399.290405,388.093964 415.147583,385.324158 430.944916,382.287628 
	C432.878418,381.915985 434.740356,379.191101 435.837982,377.131775 
	C436.599304,375.703308 436.018127,373.544983 435.991852,371.713379 
	C435.666962,349.078094 435.285706,326.443481 435.023956,303.807495 
	C434.900726,293.148956 435.048248,282.487488 434.980530,271.827942 
	C434.954010,267.651093 434.333221,263.664856 429.095856,262.882416 
	C426.799652,262.539429 424.477234,262.235321 422.160919,262.186127 
	C410.677826,261.942352 399.189941,261.894104 387.709167,261.579590 
	C371.420929,261.133453 355.140594,260.335358 338.850525,260.050293 
	C331.395325,259.919830 330.541351,261.069214 330.507965,268.479370 
	C330.438141,283.969360 330.412323,299.460297 330.504425,314.950043 
	C330.661896,341.422974 330.923950,367.895264 331.180908,395.288391 
M409.275848,242.085510 
	C415.417816,242.488037 421.561218,242.869827 427.701324,243.299072 
	C433.489227,243.703690 434.983521,242.497314 434.981537,236.741989 
	C434.969757,202.756729 435.022827,168.769974 434.622253,134.788788 
	C434.585938,131.705307 432.076050,128.033798 429.652527,125.775299 
	C427.387238,123.664284 423.797974,122.747482 420.634888,121.868599 
	C410.894348,119.162155 401.137085,116.467552 391.279480,114.241585 
	C374.603729,110.476006 357.861328,106.999245 341.116791,103.547279 
	C332.155060,101.699776 330.503906,103.150108 330.498077,112.433342 
	C330.474060,150.752167 330.467194,189.071060 330.524567,227.389816 
	C330.529388,230.608368 331.058929,233.826141 331.386475,237.514755 
	C357.453644,239.037109 382.894409,240.522903 409.275848,242.085510 
M478.331085,502.823853 
	C490.457825,497.108063 502.575256,491.372345 514.726562,485.709229 
	C515.864258,485.179016 517.217407,484.854858 518.467285,484.864258 
	C525.241760,484.915131 525.230408,484.963226 524.235046,478.272766 
	C524.088867,477.290039 524.049988,476.283325 524.051392,475.287811 
	C524.082825,452.291473 524.287903,429.293640 524.076965,406.299622 
	C524.007568,398.730011 522.867981,391.170197 522.193237,383.320831 
	C499.514984,388.020966 477.697815,392.447662 455.935699,397.130249 
	C451.389435,398.108521 449.007141,401.521118 449.005707,406.301971 
	C448.996246,438.129486 448.998993,469.957031 449.008881,501.784546 
	C449.009125,502.612274 449.035095,503.463043 449.219177,504.263977 
	C450.533051,509.980530 454.504913,512.161377 459.997589,510.058075 
	C465.893890,507.800232 471.733063,505.393158 478.331085,502.823853 
M522.840698,281.524109 
	C522.878418,279.194122 522.900024,276.863708 522.957031,274.534180 
	C523.137085,267.180969 521.008667,264.937103 513.682678,264.829742 
	C494.379333,264.546844 475.076019,264.258972 455.772308,264.005554 
	C449.919189,263.928741 449.182648,264.695557 449.162415,270.602112 
	C449.099670,288.920746 449.033417,307.239441 449.002075,325.558136 
	C448.975861,340.876648 448.969147,356.195282 449.010010,371.513733 
	C449.027527,378.077728 452.166840,380.099762 458.315430,377.813873 
	C461.103546,376.777344 463.955719,375.710876 466.872162,375.255188 
	C482.809906,372.764801 498.748322,370.234497 514.750122,368.224304 
	C519.776611,367.592834 522.662720,365.527740 522.866577,360.727356 
	C523.195984,352.970032 523.017700,345.189850 523.001831,337.419434 
	C522.964417,319.118774 522.896301,300.818176 522.840698,281.524109 
M521.107178,147.529526 
	C518.639038,146.641739 516.234070,145.448212 513.691101,144.922119 
	C505.256866,143.177292 496.711792,141.938721 488.322815,140.011505 
	C476.772888,137.358139 465.981171,131.173645 453.512268,132.726654 
	C452.818787,132.813019 451.933899,131.362411 450.607727,130.137146 
	C446.804779,168.123703 448.579041,206.040054 451.013672,243.893417 
	C451.989594,244.259552 452.601807,244.675430 453.227631,244.697037 
	C474.496857,245.431503 495.766449,246.159561 517.038696,246.799194 
	C520.423584,246.900955 522.357361,244.931915 522.401550,241.561493 
	C522.460083,237.093567 522.136780,232.620712 522.192810,228.152679 
	C522.478760,205.365341 522.910461,182.579483 523.091614,159.791519 
	C523.122620,155.896896 522.186829,151.994598 521.107178,147.529526 
M573.014465,306.500000 
	C573.014465,264.222595 573.014465,221.945190 573.014465,179.667786 
	C572.603760,179.659714 572.192993,179.651642 571.782288,179.643570 
	C571.236328,195.050537 570.595764,210.454849 570.164490,225.865036 
	C569.317200,256.144165 568.644653,286.428162 567.793091,316.707153 
	C566.628601,358.112946 565.358704,399.515747 564.145508,440.920197 
	C563.468140,464.038940 562.877014,487.160431 562.116455,510.276398 
	C561.848633,518.417175 561.052368,519.241943 553.297241,521.991577 
	C484.464752,546.396667 415.629608,570.794250 346.800995,595.210388 
	C341.270935,597.172180 335.784363,599.256714 330.277588,601.284241 
	C332.136719,601.851929 333.708496,601.522827 335.233887,601.045593 
	C411.598389,577.155212 487.958008,553.249146 564.321289,529.354858 
	C572.669556,526.742676 573.013794,526.314453 573.013916,517.437012 
	C573.014771,447.458008 573.014465,377.479004 573.014465,306.500000 
z"/>
<path fill="#010101" opacity="1.000000" stroke="none" 
	d="
M286.167816,344.000092 
	C286.167816,433.467651 286.167816,522.435181 286.167816,612.061951 
	C281.988342,610.428162 278.202423,608.995117 274.451752,607.475037 
	C210.612640,581.602722 146.776733,555.722412 82.943558,529.835510 
	C74.733582,526.506042 73.156036,523.962402 73.167992,514.040833 
	C73.270630,428.903229 73.385162,343.765625 73.490540,258.628021 
	C73.504303,247.507248 73.489609,247.506989 62.539188,247.507080 
	C47.709648,247.507217 32.880104,247.507797 18.050562,247.508148 
	C16.457191,247.508179 14.863821,247.508133 11.820511,247.508133 
	C23.652861,237.606125 34.306656,228.637711 45.020962,219.742157 
	C52.450115,213.574097 59.898403,207.425507 67.461975,201.424271 
	C71.972672,197.845322 74.070152,193.451614 74.051445,187.640701 
	C73.945274,154.649490 73.988693,121.657730 74.008888,88.666183 
	C74.013191,81.636993 75.593437,80.134666 82.536629,80.168831 
	C106.007355,80.284325 129.478104,80.394974 152.948914,80.488701 
	C161.253189,80.521866 161.936646,81.183815 161.998505,89.677200 
	C162.062790,98.506226 162.089447,107.335617 162.189713,116.164200 
	C162.207657,117.744507 162.503464,119.321648 162.784302,121.968002 
	C204.135986,87.751221 244.693420,54.191650 286.167816,19.873327 
	C286.167816,128.446793 286.167816,235.973434 286.167816,344.000092 
z"/>
<path fill="#010101" opacity="1.000000" stroke="none" 
	d="
M1582.653564,151.297226 
	C1615.095825,169.089890 1626.932373,197.235687 1623.304810,232.638428 
	C1619.651611,268.289825 1597.454590,289.937714 1566.345093,304.434479 
	C1566.490723,304.825348 1566.636353,305.216187 1566.781982,305.607025 
	C1570.648315,306.754303 1574.514282,307.903137 1578.381226,309.048523 
	C1600.023193,315.459045 1619.482544,325.414032 1633.632446,343.701080 
	C1645.646606,359.228271 1649.942383,377.297516 1650.144165,396.522064 
	C1650.674805,447.097717 1624.465088,479.733398 1580.150146,499.899658 
	C1556.273438,510.765076 1530.820801,514.526245 1504.847656,514.769470 
	C1465.361572,515.139282 1425.871094,515.004089 1386.382935,515.190613 
	C1364.899902,515.292053 1343.418213,515.639221 1321.935425,515.825317 
	C1313.598877,515.897522 1312.495972,514.745300 1312.495605,506.292023 
	C1312.490234,386.313904 1312.601318,266.335541 1312.361206,146.357880 
	C1312.329346,130.440079 1313.625732,132.874771 1325.894653,132.868240 
	C1380.711792,132.839081 1435.529419,132.835052 1490.345947,133.048050 
	C1515.182129,133.144547 1539.966919,134.288681 1563.645020,142.970535 
	C1570.012817,145.305420 1576.109009,148.380859 1582.653564,151.297226 
M1543.391968,411.716431 
	C1543.917969,405.944702 1545.282471,400.105225 1544.822388,394.413208 
	C1542.983276,371.658142 1535.672974,354.711334 1504.762939,352.970886 
	C1476.538452,351.381622 1448.250366,350.906189 1419.987427,350.031067 
	C1414.045654,349.847107 1413.034302,350.963959 1413.014160,356.983490 
	C1412.968628,370.643463 1413.000000,384.303650 1413.000000,397.963776 
	C1413.000000,411.623871 1413.017212,425.284027 1412.989746,438.944061 
	C1412.981323,443.106720 1414.061279,446.052979 1419.053955,446.207275 
	C1430.833496,446.571411 1442.665527,448.126556 1454.368408,447.417908 
	C1472.428467,446.324310 1490.556152,444.641663 1508.360718,441.526215 
	C1524.907227,438.630829 1537.995117,429.891693 1543.391968,411.716431 
M1488.283325,281.921356 
	C1511.541260,275.619995 1520.737671,263.572479 1519.998779,240.373322 
	C1519.318604,219.017899 1506.713501,205.986847 1485.362183,205.041840 
	C1464.585205,204.122269 1443.793823,203.511597 1423.006104,202.851898 
	C1414.437012,202.579956 1412.936768,204.068390 1413.025513,212.958115 
	C1413.216187,232.073334 1413.570923,251.186874 1413.810669,270.301697 
	C1413.843994,272.954987 1413.604004,275.611481 1413.495728,278.266724 
	C1413.321167,282.546265 1415.022583,284.636139 1419.659912,284.573090 
	C1432.987305,284.391876 1446.327881,284.812683 1459.645264,284.405121 
	C1468.930664,284.120911 1478.186157,282.861938 1488.283325,281.921356 
z"/>
<path fill="#010101" opacity="1.000000" stroke="none" 
	d="
M1135.847412,519.918335 
	C1121.694824,521.483459 1107.970093,524.307129 1094.256714,524.251953 
	C1059.059326,524.110229 1024.627441,518.922974 992.417053,503.572296 
	C949.244995,482.997650 920.409607,449.754242 905.651550,404.380737 
	C887.499878,348.573761 887.261719,292.847717 908.003052,237.639877 
	C928.118896,184.096802 966.201782,149.557465 1021.089966,134.007172 
	C1068.455078,120.588203 1115.967163,120.065765 1163.242798,134.969742 
	C1221.895874,153.460587 1260.631592,191.878967 1277.994019,251.017624 
	C1294.707886,307.946686 1294.032837,364.332947 1269.983154,419.337555 
	C1246.111694,473.934937 1203.984009,505.954407 1146.075806,517.966980 
	C1142.819458,518.642456 1139.545898,519.234558 1135.847412,519.918335 
M1068.913086,199.220322 
	C1057.984375,201.850098 1047.739258,205.990616 1038.655151,212.760132 
	C1019.923584,226.719116 1009.731384,246.202408 1003.011841,267.901764 
	C995.968384,290.647064 995.193787,314.048920 995.991516,337.590637 
	C996.696594,358.398956 1000.553406,378.595551 1009.287659,397.554260 
	C1024.377563,430.308502 1049.485352,450.123138 1086.055176,451.584747 
	C1124.323975,453.114288 1152.905273,436.313995 1170.426514,401.658417 
	C1179.980225,382.761780 1184.251709,362.574799 1185.497925,341.658813 
	C1187.101196,314.746704 1185.825073,288.027985 1176.829956,262.333740 
	C1168.663452,239.005615 1156.015381,218.783325 1133.358398,206.718414 
	C1113.206177,195.987152 1091.726929,195.187119 1068.913086,199.220322 
z"/>
<path fill="#010101" opacity="1.000000" stroke="none" 
	d="
M852.229004,265.228149 
	C841.421509,277.924408 830.813110,290.323120 820.272278,302.779022 
	C815.056274,308.942749 815.083984,311.138672 820.031250,317.587952 
	C869.271667,381.777527 918.511658,445.967438 967.742126,510.164612 
	C968.834961,511.589661 969.814819,513.101318 971.187805,515.057678 
	C968.195435,515.353455 965.753357,515.801941 963.310730,515.805115 
	C928.317078,515.850952 893.323242,515.780701 858.329895,515.893005 
	C852.618042,515.911316 848.585999,513.645203 845.244141,509.163483 
	C810.021667,461.927551 774.731506,414.742126 739.448975,367.550964 
	C738.262634,365.964142 736.960815,364.463684 735.558716,362.732697 
	C728.858093,370.995697 722.157043,378.862000 715.981262,387.121033 
	C714.167603,389.546478 712.984070,393.081238 712.967651,396.115417 
	C712.766663,433.274323 712.839050,470.434662 712.834900,507.594635 
	C712.834106,515.041504 712.053345,515.818115 704.513550,515.834473 
	C677.020569,515.894165 649.527588,515.952637 622.034607,515.989929 
	C615.508911,515.998779 613.842834,514.201782 613.840149,507.072723 
	C613.823730,463.580566 613.831970,420.088409 613.831848,376.596252 
	C613.831604,298.776947 613.830322,220.957626 613.832275,143.138321 
	C613.832520,133.659210 614.648926,132.834564 624.026611,132.833130 
	C650.183777,132.829132 676.341003,132.829346 702.498169,132.833252 
	C711.929382,132.834656 713.002502,133.902390 712.994568,143.557190 
	C712.952332,195.046051 712.891418,246.534912 712.837280,298.023773 
	C712.835388,299.834137 712.837036,301.644501 712.837036,305.165100 
	C715.059509,302.550690 716.398193,301.068146 717.636475,299.506042 
	C759.626587,246.533569 801.631775,193.572952 843.549561,140.543213 
	C847.564270,135.464157 852.196838,133.016022 858.878174,133.053467 
	C891.868591,133.238449 924.861084,133.053619 957.852844,132.999786 
	C959.493652,132.997101 961.134460,132.999435 964.422607,132.999435 
	C926.567383,177.612473 889.511658,221.283325 852.229004,265.228149 
z"/>
<path fill="#010101" opacity="1.000000" stroke="none" 
	d="
M1773.164795,226.004242 
	C1773.113037,239.165909 1773.038330,251.828812 1773.008545,264.491852 
	C1772.990845,272.040283 1774.746094,273.831787 1782.497314,273.813599 
	C1813.321533,273.741364 1844.145752,273.616882 1874.969971,273.478363 
	C1880.792358,273.452179 1886.617188,273.104156 1892.435303,273.210114 
	C1899.055176,273.330627 1900.855591,275.465149 1900.846069,282.167969 
	C1900.819214,300.982758 1900.809326,319.797638 1900.851562,338.612366 
	C1900.867920,345.908752 1899.430176,347.502289 1892.234131,347.504578 
	C1855.235107,347.516327 1818.236084,347.507294 1781.237061,347.512085 
	C1773.530273,347.513092 1773.010986,348.014313 1773.006714,355.717590 
	C1772.992676,381.216919 1772.981689,406.716309 1773.012817,432.215607 
	C1773.023315,440.824615 1773.747070,441.487488 1782.474487,441.488098 
	C1837.639771,441.492035 1892.804932,441.489166 1947.970215,441.491028 
	C1957.192505,441.491333 1957.499512,441.783905 1957.505737,451.007660 
	C1957.518433,469.658600 1957.533936,488.309631 1957.494263,506.960480 
	C1957.478760,514.292236 1955.814453,515.954712 1948.807739,515.951904 
	C1859.311523,515.916260 1769.815430,515.877502 1680.319214,515.839294 
	C1679.319214,515.838867 1678.319336,515.835876 1677.319336,515.833130 
	C1673.709106,515.823181 1671.657593,514.273743 1671.846069,510.402069 
	C1671.918823,508.906433 1671.832397,507.403412 1671.832397,505.903778 
	C1671.830811,385.240265 1671.830444,264.576752 1671.830444,143.913223 
	C1671.830444,132.848862 1671.831665,132.833282 1682.846069,132.832764 
	C1771.177124,132.828598 1859.508057,132.829498 1947.839111,132.832916 
	C1956.973022,132.833267 1957.486816,133.303452 1957.502319,142.336411 
	C1957.534546,160.988663 1957.537964,179.641068 1957.496582,198.293289 
	C1957.479736,205.883392 1955.896362,207.492691 1948.472656,207.495926 
	C1899.807251,207.517136 1851.141968,207.535187 1802.476562,207.480606 
	C1795.322388,207.472580 1788.170044,207.010483 1781.014526,206.875290 
	C1775.174072,206.764938 1773.098389,208.772766 1773.021118,214.512146 
	C1772.971802,218.175323 1773.108032,221.840973 1773.164795,226.004242 
z"/>
<path fill="#010101" opacity="1.000000" stroke="none" 
	d="
M436.001953,430.000000 
	C436.056976,457.488281 436.058807,484.476837 436.212006,511.464569 
	C436.242554,516.846619 433.944946,520.288025 429.049316,522.210815 
	C398.936096,534.037842 368.833038,545.890686 338.706757,557.684265 
	C334.311798,559.404724 332.730316,558.344482 332.532593,553.225769 
	C331.768188,533.439026 330.877319,513.650696 330.565399,493.854614 
	C330.229401,472.534210 330.482208,451.204468 330.493164,429.878784 
	C330.497406,421.625366 331.724762,420.264526 339.945374,418.761536 
	C365.284241,414.128693 390.623718,409.498047 415.940613,404.747620 
	C419.345795,404.108673 422.635223,402.826050 425.956604,401.773132 
	C432.331299,399.752411 435.684082,401.841522 435.928650,408.509766 
	C436.184998,415.498016 435.996216,422.502563 436.001953,430.000000 
z"/>
<path fill="#020202" opacity="1.000000" stroke="none" 
	d="
M331.161499,394.828125 
	C330.923950,367.895264 330.661896,341.422974 330.504425,314.950043 
	C330.412323,299.460297 330.438141,283.969360 330.507965,268.479370 
	C330.541351,261.069214 331.395325,259.919830 338.850525,260.050293 
	C355.140594,260.335358 371.420929,261.133453 387.709167,261.579590 
	C399.189941,261.894104 410.677826,261.942352 422.160919,262.186127 
	C424.477234,262.235321 426.799652,262.539429 429.095856,262.882416 
	C434.333221,263.664856 434.954010,267.651093 434.980530,271.827942 
	C435.048248,282.487488 434.900726,293.148956 435.023956,303.807495 
	C435.285706,326.443481 435.666962,349.078094 435.991852,371.713379 
	C436.018127,373.544983 436.599304,375.703308 435.837982,377.131775 
	C434.740356,379.191101 432.878418,381.915985 430.944916,382.287628 
	C415.147583,385.324158 399.290405,388.093964 383.386719,390.520630 
	C367.451721,392.952026 351.449036,394.949524 335.452850,396.952209 
	C334.119202,397.119141 332.609039,395.876251 331.161499,394.828125 
z"/>
<path fill="#020202" opacity="1.000000" stroke="none" 
	d="
M408.805511,242.047089 
	C382.894409,240.522903 357.453644,239.037109 331.386475,237.514755 
	C331.058929,233.826141 330.529388,230.608368 330.524567,227.389816 
	C330.467194,189.071060 330.474060,150.752167 330.498077,112.433342 
	C330.503906,103.150108 332.155060,101.699776 341.116791,103.547279 
	C357.861328,106.999245 374.603729,110.476006 391.279480,114.241585 
	C401.137085,116.467552 410.894348,119.162155 420.634888,121.868599 
	C423.797974,122.747482 427.387238,123.664284 429.652527,125.775299 
	C432.076050,128.033798 434.585938,131.705307 434.622253,134.788788 
	C435.022827,168.769974 434.969757,202.756729 434.981537,236.741989 
	C434.983521,242.497314 433.489227,243.703690 427.701324,243.299072 
	C421.561218,242.869827 415.417816,242.488037 408.805511,242.047089 
z"/>
<path fill="#010101" opacity="1.000000" stroke="none" 
	d="
M477.964142,502.937531 
	C471.733063,505.393158 465.893890,507.800232 459.997589,510.058075 
	C454.504913,512.161377 450.533051,509.980530 449.219177,504.263977 
	C449.035095,503.463043 449.009125,502.612274 449.008881,501.784546 
	C448.998993,469.957031 448.996246,438.129486 449.005707,406.301971 
	C449.007141,401.521118 451.389435,398.108521 455.935699,397.130249 
	C477.697815,392.447662 499.514984,388.020966 522.193237,383.320831 
	C522.867981,391.170197 524.007568,398.730011 524.076965,406.299622 
	C524.287903,429.293640 524.082825,452.291473 524.051392,475.287811 
	C524.049988,476.283325 524.088867,477.290039 524.235046,478.272766 
	C525.230408,484.963226 525.241760,484.915131 518.467285,484.864258 
	C517.217407,484.854858 515.864258,485.179016 514.726562,485.709229 
	C502.575256,491.372345 490.457825,497.108063 477.964142,502.937531 
z"/>
<path fill="#020202" opacity="1.000000" stroke="none" 
	d="
M522.840698,282.020813 
	C522.896301,300.818176 522.964417,319.118774 523.001831,337.419434 
	C523.017700,345.189850 523.195984,352.970032 522.866577,360.727356 
	C522.662720,365.527740 519.776611,367.592834 514.750122,368.224304 
	C498.748322,370.234497 482.809906,372.764801 466.872162,375.255188 
	C463.955719,375.710876 461.103546,376.777344 458.315430,377.813873 
	C452.166840,380.099762 449.027527,378.077728 449.010010,371.513733 
	C448.969147,356.195282 448.975861,340.876648 449.002075,325.558136 
	C449.033417,307.239441 449.099670,288.920746 449.162415,270.602112 
	C449.182648,264.695557 449.919189,263.928741 455.772308,264.005554 
	C475.076019,264.258972 494.379333,264.546844 513.682678,264.829742 
	C521.008667,264.937103 523.137085,267.180969 522.957031,274.534180 
	C522.900024,276.863708 522.878418,279.194122 522.840698,282.020813 
z"/>
<path fill="#020202" opacity="1.000000" stroke="none" 
	d="
M521.402466,147.812683 
	C522.186829,151.994598 523.122620,155.896896 523.091614,159.791519 
	C522.910461,182.579483 522.478760,205.365341 522.192810,228.152679 
	C522.136780,232.620712 522.460083,237.093567 522.401550,241.561493 
	C522.357361,244.931915 520.423584,246.900955 517.038696,246.799194 
	C495.766449,246.159561 474.496857,245.431503 453.227631,244.697037 
	C452.601807,244.675430 451.989594,244.259552 451.013672,243.893417 
	C448.579041,206.040054 446.804779,168.123703 450.607727,130.137146 
	C451.933899,131.362411 452.818787,132.813019 453.512268,132.726654 
	C465.981171,131.173645 476.772888,137.358139 488.322815,140.011505 
	C496.711792,141.938721 505.256866,143.177292 513.691101,144.922119 
	C516.234070,145.448212 518.639038,146.641739 521.402466,147.812683 
z"/>
<path fill="#080808" opacity="1.000000" stroke="none" 
	d="
M573.014465,307.000000 
	C573.014465,377.479004 573.014771,447.458008 573.013916,517.437012 
	C573.013794,526.314453 572.669556,526.742676 564.321289,529.354858 
	C487.958008,553.249146 411.598389,577.155212 335.233887,601.045593 
	C333.708496,601.522827 332.136719,601.851929 330.277588,601.284241 
	C335.784363,599.256714 341.270935,597.172180 346.800995,595.210388 
	C415.629608,570.794250 484.464752,546.396667 553.297241,521.991577 
	C561.052368,519.241943 561.848633,518.417175 562.116455,510.276398 
	C562.877014,487.160431 563.468140,464.038940 564.145508,440.920197 
	C565.358704,399.515747 566.628601,358.112946 567.793091,316.707153 
	C568.644653,286.428162 569.317200,256.144165 570.164490,225.865036 
	C570.595764,210.454849 571.236328,195.050537 571.782288,179.643570 
	C572.192993,179.651642 572.603760,179.659714 573.014465,179.667786 
	C573.014465,221.945190 573.014465,264.222595 573.014465,307.000000 
z"/>
<path fill="#FEFEFE" opacity="1.000000" stroke="none" 
	d="
M1543.259155,412.104004 
	C1537.995117,429.891693 1524.907227,438.630829 1508.360718,441.526215 
	C1490.556152,444.641663 1472.428467,446.324310 1454.368408,447.417908 
	C1442.665527,448.126556 1430.833496,446.571411 1419.053955,446.207275 
	C1414.061279,446.052979 1412.981323,443.106720 1412.989746,438.944061 
	C1413.017212,425.284027 1413.000000,411.623871 1413.000000,397.963776 
	C1413.000000,384.303650 1412.968628,370.643463 1413.014160,356.983490 
	C1413.034302,350.963959 1414.045654,349.847107 1419.987427,350.031067 
	C1448.250366,350.906189 1476.538452,351.381622 1504.762939,352.970886 
	C1535.672974,354.711334 1542.983276,371.658142 1544.822388,394.413208 
	C1545.282471,400.105225 1543.917969,405.944702 1543.259155,412.104004 
z"/>
<path fill="#FDFDFD" opacity="1.000000" stroke="none" 
	d="
M1487.869141,281.979858 
	C1478.186157,282.861938 1468.930664,284.120911 1459.645264,284.405121 
	C1446.327881,284.812683 1432.987305,284.391876 1419.659912,284.573090 
	C1415.022583,284.636139 1413.321167,282.546265 1413.495728,278.266724 
	C1413.604004,275.611481 1413.843994,272.954987 1413.810669,270.301697 
	C1413.570923,251.186874 1413.216187,232.073334 1413.025513,212.958115 
	C1412.936768,204.068390 1414.437012,202.579956 1423.006104,202.851898 
	C1443.793823,203.511597 1464.585205,204.122269 1485.362183,205.041840 
	C1506.713501,205.986847 1519.318604,219.017899 1519.998779,240.373322 
	C1520.737671,263.572479 1511.541260,275.619995 1487.869141,281.979858 
z"/>
<path fill="#FEFEFE" opacity="1.000000" stroke="none" 
	d="
M1069.331421,199.152924 
	C1091.726929,195.187119 1113.206177,195.987152 1133.358398,206.718414 
	C1156.015381,218.783325 1168.663452,239.005615 1176.829956,262.333740 
	C1185.825073,288.027985 1187.101196,314.746704 1185.497925,341.658813 
	C1184.251709,362.574799 1179.980225,382.761780 1170.426514,401.658417 
	C1152.905273,436.313995 1124.323975,453.114288 1086.055176,451.584747 
	C1049.485352,450.123138 1024.377563,430.308502 1009.287659,397.554260 
	C1000.553406,378.595551 996.696594,358.398956 995.991516,337.590637 
	C995.193787,314.048920 995.968384,290.647064 1003.011841,267.901764 
	C1009.731384,246.202408 1019.923584,226.719116 1038.655151,212.760132 
	C1047.739258,205.990616 1057.984375,201.850098 1069.331421,199.152924 
z"/>
</svg>