<svg width="70" height="70" viewBox="0 0 70 70" fill="none" xmlns="http://www.w3.org/2000/svg">
<path fill-rule="evenodd" clip-rule="evenodd" d="M34.88 69.82C27.978 69.8141 21.2327 67.7623 15.4963 63.9241C9.76003 60.0859 5.29018 54.6334 2.65164 48.2556C0.0131056 41.8779 -0.6757 34.8611 0.672266 28.0921C2.02023 21.323 5.34447 15.1054 10.2249 10.2249C15.1054 5.34447 21.323 2.02023 28.0921 0.672266C34.8611 -0.6757 41.8779 0.0131056 48.2556 2.65164C54.6334 5.29018 60.0859 9.76003 63.9241 15.4963C67.7623 21.2327 69.8141 27.978 69.82 34.88C69.8041 44.1418 66.1179 53.0197 59.5688 59.5688C53.0197 66.1179 44.1418 69.8041 34.88 69.82ZM17.67 38.31C20.2673 37.1289 22.3964 35.1151 23.7201 32.5875C25.0437 30.0598 25.4864 27.1629 24.9779 24.3553C24.4694 21.5477 23.0389 18.99 20.9128 17.0872C18.7867 15.1844 16.0866 14.0452 13.24 13.85H10.68V54.37H13.17V39.45C13.8242 39.3932 14.475 39.3031 15.12 39.18L29.94 56.59H33.23L17.67 38.31ZM13.24 16.47C15.8081 16.6543 18.2116 17.8029 19.968 19.6855C21.7245 21.5681 22.704 24.0453 22.71 26.62C22.7088 29.209 21.7344 31.703 19.9802 33.6073C18.2261 35.5115 15.8202 36.6868 13.24 36.9V16.47ZM54.09 31.79C54.09 31.5248 54.1954 31.2704 54.3829 31.0829C54.5704 30.8954 54.8248 30.79 55.09 30.79C55.2279 30.7789 55.3666 30.7966 55.4973 30.8419C55.628 30.8871 55.7479 30.9591 55.8494 31.053C55.9509 31.147 56.0318 31.261 56.087 31.3879C56.1422 31.5147 56.1704 31.6517 56.17 31.79V47.44H58.66V31.79C58.6596 31.6517 58.6878 31.5147 58.743 31.3879C58.7982 31.261 58.8791 31.147 58.9806 31.053C59.0821 30.9591 59.202 30.8871 59.3327 30.8419C59.4634 30.7966 59.6021 30.7789 59.74 30.79C60.0052 30.79 60.2596 30.8954 60.4471 31.0829C60.6346 31.2704 60.74 31.5248 60.74 31.79V47.44H63.23V31.79C63.238 30.8555 62.8751 29.9559 62.2209 29.2886C61.5667 28.6212 60.6745 28.2406 59.74 28.23C59.3202 28.2072 58.9003 28.2728 58.5075 28.4227C58.1148 28.5726 57.7579 28.8033 57.46 29.1C57.1473 28.8039 56.7779 28.5741 56.374 28.4246C55.9701 28.2751 55.5402 28.2089 55.11 28.23C54.7663 28.2258 54.4256 28.2939 54.11 28.43V28.23H51.6V47.44H54.09V31.79ZM41.86 39V37.91C41.86 32.47 40.05 28.03 37.76 28.03C35.47 28.03 33.59 32.46 33.59 37.91C33.59 43.36 35.47 47.72 37.76 47.72C39.51 47.72 41.05 45.03 41.59 41.27L39.31 40.93C39.04 43.35 38.44 44.93 37.76 44.93C36.89 44.93 36.15 42.38 36.01 38.93L41.86 39ZM39.44 36.43H36.08C36.21 33.14 36.89 30.79 37.76 30.79C38.63 30.79 39.31 33.14 39.44 36.43ZM50.66 39C50.7166 38.6463 50.74 38.2881 50.73 37.93C50.73 32.49 48.92 28.05 46.63 28.05C44.34 28.05 42.46 32.48 42.46 37.93C42.46 43.38 44.34 47.74 46.63 47.74C48.38 47.74 49.92 45.05 50.46 41.29L48.18 40.95C47.91 43.37 47.31 44.95 46.63 44.95C45.76 44.95 45.02 42.4 44.88 38.95L50.66 39ZM48.31 36.44H44.88C45.08 33.15 45.75 30.8 46.63 30.8C47.51 30.8 48.18 33.15 48.31 36.44ZM32.94 31.85C32.952 31.3818 32.8709 30.9158 32.7015 30.4792C32.532 30.0425 32.2777 29.6438 31.953 29.3062C31.6284 28.9686 31.24 28.6987 30.8104 28.5123C30.3807 28.3258 29.9183 28.2265 29.45 28.22C29.0836 28.2155 28.72 28.2835 28.38 28.42V2.29H25.88V47.44H28.37V31.85C28.3673 31.7083 28.3931 31.5675 28.4458 31.4359C28.4985 31.3043 28.577 31.1846 28.6768 31.0839C28.7766 30.9832 28.8955 30.9036 29.0266 30.8496C29.1577 30.7957 29.2983 30.7686 29.44 30.77C29.5783 30.7696 29.7153 30.7978 29.8421 30.853C29.969 30.9082 30.083 30.9891 30.177 31.0906C30.271 31.1921 30.3429 31.312 30.3881 31.4427C30.4334 31.5734 30.4511 31.7121 30.44 31.85V47.44H32.94V31.85ZM51.18 57.61C51.6617 57.608 52.1321 57.4635 52.5318 57.1946C52.9315 56.9258 53.2427 56.5446 53.4262 56.0991C53.6096 55.6537 53.6571 55.1639 53.5626 54.6915C53.4681 54.2192 53.236 53.7853 52.8953 53.4447C52.5547 53.104 52.1208 52.8719 51.6485 52.7774C51.1761 52.6829 50.6863 52.7304 50.2409 52.9138C49.7954 53.0973 49.4143 53.4085 49.1454 53.8082C48.8765 54.2079 48.732 54.6783 48.73 55.16C48.726 55.4829 48.7866 55.8033 48.9083 56.1023C49.03 56.4014 49.2103 56.6731 49.4386 56.9014C49.6669 57.1297 49.9386 57.31 50.2377 57.4317C50.5367 57.5534 50.8571 57.614 51.18 57.61ZM49.18 55.16C49.18 54.7644 49.2973 54.3778 49.5171 54.0489C49.7368 53.72 50.0492 53.4636 50.4146 53.3122C50.7801 53.1609 51.1822 53.1213 51.5702 53.1984C51.9581 53.2756 52.3145 53.4661 52.5942 53.7458C52.8739 54.0255 53.0644 54.3819 53.1416 54.7698C53.2187 55.1578 53.1791 55.5599 53.0278 55.9254C52.8764 56.2908 52.62 56.6032 52.2911 56.8229C51.9622 57.0427 51.5756 57.16 51.18 57.16C50.6496 57.16 50.1409 56.9493 49.7658 56.5742C49.3907 56.1991 49.18 55.6904 49.18 55.16ZM50.63 55.35H51.11L51.94 56.58H52.41L51.62 55.34C51.7194 55.3389 51.8175 55.3175 51.9083 55.2771C51.9991 55.2367 52.0807 55.1782 52.1481 55.1052C52.2155 55.0322 52.2673 54.9461 52.3003 54.8524C52.3333 54.7587 52.3468 54.6592 52.34 54.56C52.34 54 52.01 53.76 51.34 53.76H50.25V56.58H50.67V55.35H50.63ZM50.63 54.99V54.12H51.2C51.49 54.12 51.81 54.18 51.81 54.53C51.81 54.88 51.49 54.99 51.13 54.99H50.63Z" fill="black"/>
</svg>
